<svg width="33" height="35" viewBox="0 0 33 35" fill="none" xmlns="http://www.w3.org/2000/svg">
<g clip-path="url(#clip0_702_350)">
<path d="M9.33952 2.6928C9.30212 2.62065 9.27931 2.54185 9.27239 2.46088C9.26546 2.37992 9.27455 2.29839 9.29914 2.22094C9.32374 2.14349 9.36335 2.07165 9.41571 2.00952C9.46808 1.94738 9.53218 1.89617 9.60434 1.85882C11.8186 0.732831 14.2783 0.175598 16.7616 0.237354C19.2449 0.299111 21.6738 0.977916 23.8294 2.21257C23.9001 2.25323 23.962 2.30749 24.0117 2.37221C24.0613 2.43694 24.0976 2.51085 24.1186 2.58968C24.1395 2.66851 24.1446 2.75071 24.1336 2.83152C24.1226 2.91234 24.0957 2.99018 24.0544 3.06055L16.9334 15.2818C16.879 15.3754 16.801 15.4531 16.7072 15.507C16.6134 15.5609 16.507 15.5892 16.3988 15.589H16.383C16.2722 15.5861 16.1642 15.5535 16.0702 15.4947C15.9761 15.4359 15.8996 15.353 15.8484 15.2546L9.33952 2.6928ZM16.0168 18.8484V18.8471L9.5076 6.28535C9.432 6.13992 9.30194 6.0303 9.1458 5.98043C8.98967 5.93056 8.82015 5.94448 8.67424 6.01917C6.93947 6.90867 5.39745 8.13201 4.13667 9.61899C2.87589 11.106 1.92119 12.8273 1.32735 14.6842C0.733515 16.541 0.512238 18.4969 0.67622 20.4395C0.840202 22.3822 1.38621 24.2733 2.28292 26.0043C3.17962 27.7354 4.40937 29.2723 5.90157 30.5269C7.39377 31.7815 9.11904 32.729 10.9784 33.3151C12.8377 33.9013 14.7945 34.1144 16.7364 33.9424C18.6783 33.7703 20.5671 33.2164 22.2945 32.3125C22.4395 32.2366 22.5487 32.1063 22.5981 31.9501C22.6475 31.794 22.6331 31.6247 22.5582 31.4791L16.0168 18.8484ZM23.6468 30.7219L23.6964 30.821C23.7712 30.9671 23.9 31.0782 24.0556 31.1306C24.1194 31.1518 24.1867 31.1602 24.2537 31.1554C24.3517 31.1527 24.4484 31.1317 24.5386 31.0935C24.7641 30.9817 24.9833 30.8577 25.1951 30.7219C25.8251 30.3564 26.4256 29.9422 26.9911 29.4832H23.0027L23.6468 30.7219ZM22.3586 28.2446H28.3413C28.7259 27.8581 29.0819 27.4441 29.4065 27.006H21.7145L22.3586 28.2446ZM21.0828 25.7673H30.2859C30.5396 25.3696 30.7672 24.9559 30.9672 24.5287H20.4387L21.0828 25.7673ZM19.7946 23.29H31.5122C31.6765 22.8857 31.8172 22.4721 31.9333 22.0514H19.1505L19.7946 23.29ZM18.5064 20.8127H32.243C32.3173 20.404 32.3792 19.9952 32.4164 19.5741H17.8747L18.5064 20.8127ZM25.1456 5.15633C25.076 5.1131 24.9981 5.08521 24.9169 5.07453C24.8357 5.06385 24.7532 5.07062 24.6749 5.0944C24.5946 5.11272 24.5191 5.1475 24.453 5.19654C24.3869 5.24558 24.3317 5.30781 24.2909 5.37928L23.9565 5.94906H26.347C25.961 5.66352 25.5599 5.3989 25.1456 5.15633ZM27.8458 7.1877H23.2381L22.5196 8.42634H29.0225C28.656 7.98973 28.2631 7.57607 27.8458 7.1877ZM29.9515 9.66498H21.7888L21.0704 10.9036H30.7071C30.4836 10.4741 30.2311 10.0603 29.9515 9.66498ZM31.3016 12.1423H20.352L19.6336 13.3809H31.7847C31.6474 12.9592 31.4861 12.5456 31.3016 12.1423ZM32.1315 14.6195H18.9028L18.1844 15.8582H32.3545C32.3053 15.4412 32.2308 15.0275 32.1315 14.6195ZM32.4783 17.0968H17.466L17.1687 17.6047C17.115 17.6941 17.0857 17.796 17.0835 17.9003C17.0813 18.0046 17.1064 18.1076 17.1563 18.1992L17.2306 18.3355H32.5031C32.5155 18.2116 32.5155 18.0754 32.5155 17.9515C32.5155 17.6666 32.5031 17.3817 32.4783 17.0968Z" fill="white"/>
<path d="M9.05494 5.40696C8.8279 4.97673 8.29352 4.80993 7.87669 5.06072C4.57681 7.04608 2.11142 10.182 0.968011 13.8808C-0.262358 17.861 0.138769 22.1669 2.08315 25.8512C4.02753 29.5356 7.35588 32.2967 11.336 33.5271C15.0348 34.6705 19.015 34.4049 22.5162 32.801C22.9585 32.5985 23.1224 32.0632 22.8953 31.6329L15.9751 18.52L9.05494 5.40696Z" fill="white"/>
</g>
<defs>
<clipPath id="clip0_702_350">
<rect width="32.745" height="34.8351" fill="white" transform="translate(-0.011549 -0.319336)"/>
</clipPath>
</defs>
</svg>
